<?xml version="1.0" encoding="UTF-8"?>
<svg version="1.1" viewBox="0 0 180 180" xmlns="http://www.w3.org/2000/svg">
<circle cx="90" cy="90" r="90" fill="#f9f9f9" stroke-width="1.081"/>
<circle cx="90" cy="90" r="83.28" fill="#000080"/>
<path d="m96.15 141.6h-12.44v-75.76h12.44zm-26.01-96.26q0-3.675 1.979-5.23 1.979-1.696 4.664-1.696t4.664 1.696q1.979 1.555 1.979 5.23 0 3.534-1.979 5.371-1.979 1.696-4.664 1.696t-4.664-1.696q-1.979-1.837-1.979-5.371zm26.57 0q0-3.675 1.837-5.23 1.979-1.696 4.664-1.696 2.686 0 4.664 1.696 1.979 1.555 1.979 5.23 0 3.534-1.979 5.371-1.979 1.696-4.664 1.696-2.686 0-4.664-1.696-1.837-1.837-1.837-5.371z" fill="#f2f2f2" stroke-width="2.208" aria-label="ї"/>
</svg>
